# Alias OBJ Model File
# Exported from SketchUp, (c) 2000-2012 Trimble Navigation Limited
# File units = inches

mtllib Triagon Alley.mtl

g Mesh1 Model

usemtl _7
v 177.744 182.938 -118.417
vt 67.2509 33.1195
vn 0 1 -0
v 177.744 182.938 -197.188
vt 67.2509 33.9149
v 155.005 182.938 -157.802
vt 66.9064 33.5172
f 1/1/1 2/2/1 3/3/1

v 223.223 182.938 -118.417
vt 67.9399 33.1195
f 2/2/1 1/1/1 4/4/1

v 177.744 65.625 -118.417
vt 66.3418 15.3159
vn -3.12476e-16 0 1
vt 67.6317 17.5336
vt 66.3418 17.5336
f 5/5/2 4/6/2 1/7/2

v 223.223 65.625 -118.417
vt 67.6317 15.3159
f 4/6/2 5/5/2 6/8/2

usemtl _3
vt 16.5194 11.1786
v 243.702 65.625 -31.7577
vt 17.9244 8.71804
vt 17.4882 11.1786
f 5/9/1 7/10/1 6/11/1

v 157.265 65.625 -82.9452
vt 16.0832 10.1715
f 8/12/1 7/10/1 5/9/1

v 157.265 65.625 -31.7577
vt 16.0832 8.71804
f 7/10/1 8/12/1 9/13/1

usemtl _5
vt 34.6784 2.23788
vn -1 0 -0
v 157.265 29.8125 -31.7577
vt 35.704 1.75962
vt 35.704 2.23788
f 8/14/3 10/15/3 9/16/3

v 157.265 29.8125 -82.9452
vt 34.6784 1.75962
f 10/15/3 8/14/3 11/17/3

v 114.046 65.625 -157.802
vt 49.4919 2.23788
vn -0.866025 0 0.5
vt 51.2238 1.75961
vt 51.2238 2.23787
f 12/18/4 11/19/4 8/20/4

v 114.046 29.8125 -157.802
vt 49.4919 1.75961
f 11/19/4 12/18/4 13/21/4

vn -0.5 0 0.866025
v 69.7164 29.8125 -183.396
vt 48.4662 1.75961
f 12/18/5 14/22/5 13/21/5

v 69.7164 65.625 -183.396
vt 48.4662 2.23788
f 14/22/5 12/18/5 15/23/5

usemtl _3
vt 15.1626 12.297
v 112.935 65.625 -258.253
vt 15.139 15.1492
vt 14.2184 13.0237
f 12/24/1 16/25/1 15/26/1

v 157.265 65.625 -232.659
vt 16.0832 14.4224
f 16/25/1 12/24/1 17/27/1

v 155.005 65.625 -157.802
vt 16.0351 12.297
f 17/27/1 12/24/1 18/28/1

f 8/12/1 18/28/1 12/24/1

f 18/28/1 8/12/1 5/9/1

usemtl _7
vt 65.0518 17.5336
vt 65.0518 15.3159
f 5/5/4 3/29/4 18/30/4

f 3/29/4 5/5/4 1/7/4

vt 71.5015 17.5336
vn -0.866025 0 -0.5
vt 72.7915 15.3159
vt 72.7915 17.5336
f 2/31/6 18/32/6 3/33/6

v 177.744 65.625 -197.188
vt 71.5015 15.3159
f 18/32/6 2/31/6 19/34/6

vn 6.24951e-16 0 -1
v 223.223 65.625 -197.188
vt 70.2116 15.3159
f 2/31/7 20/35/7 19/34/7

v 223.223 182.938 -197.188
vt 70.2116 17.5336
f 20/35/7 2/31/7 21/36/7

vt 67.9399 33.9149
f 2/2/1 4/4/1 21/37/1

v 245.962 182.938 -157.802
vt 68.2844 33.5172
f 21/37/1 4/4/1 22/38/1

vn 0.866025 0 0.5
v 245.962 65.625 -157.802
vt 68.9217 15.3159
vt 68.9217 17.5336
f 4/6/8 23/39/8 22/40/8

f 23/39/8 4/6/8 6/8/8

usemtl _3
v 243.702 65.625 -82.9452
vt 17.9244 10.1715
vt 17.9725 12.297
f 6/11/1 24/41/1 23/42/1

f 6/11/1 7/10/1 24/41/1

usemtl _5
vt 37.4359 2.23788
vn 1 0 -0
v 243.702 29.8125 -82.9452
vt 38.4616 1.75962
vt 38.4616 2.23788
f 7/43/9 25/44/9 24/45/9

v 243.702 29.8125 -31.7577
vt 37.4359 1.75962
f 25/44/9 7/43/9 26/46/9

vn -6.57625e-16 0 1
f 7/43/10 10/15/10 26/46/10

f 10/15/10 7/43/10 9/16/10

usemtl _
vt -20.5494 18.5545
vn 0 -1 -0
v 157.265 29.8125 -232.659
vt -20.4697 15.5439
vt -19.5777 18.6002
f 10/47/11 27/48/11 26/49/11

vt -20.5291 17.7874
f 11/50/11 27/48/11 10/47/11

vt -20.9852 16.6428
f 13/51/11 27/48/11 11/50/11

v 112.935 29.8125 -258.253
vt -20.9579 15.1369
f 13/51/11 28/52/11 27/48/11

vt -21.4734 16.2358
f 28/52/11 13/51/11 14/53/11

usemtl _5
vt 46.7343 2.23788
vt 46.7343 1.75961
f 14/22/6 16/54/6 28/55/6

f 16/54/6 14/22/6 15/23/6

vn 0.5 0 -0.866025
vt 45.7087 1.75961
f 16/54/12 27/56/12 28/55/12

vt 45.7087 2.23788
f 27/56/12 16/54/12 17/57/12

vn 3.28812e-16 0 -1
v 243.702 29.8125 -232.659
vt 43.9767 1.75961
f 17/57/13 29/58/13 27/56/13

v 243.702 65.625 -232.659
vt 43.9767 2.23788
f 29/58/13 17/57/13 30/59/13

usemtl _3
vt 16.5194 13.4153
vt 17.9244 14.4225
f 17/27/1 19/60/1 30/61/1

f 17/27/1 18/28/1 19/60/1

vt 17.4882 13.4153
f 30/61/1 19/60/1 20/62/1

f 30/61/1 20/62/1 23/42/1

usemtl _7
vn 0.866025 0 -0.5
f 20/35/14 22/40/14 23/39/14

f 22/40/14 20/35/14 21/36/14

usemtl _3
v 288.032 65.625 -258.253
vt 18.8687 15.1492
f 30/61/1 23/42/1 31/63/1

v 286.921 65.625 -157.802
vt 18.845 12.297
f 31/63/1 23/42/1 32/64/1

f 23/42/1 24/41/1 32/64/1

usemtl _5
v 286.921 29.8125 -157.802
vt 40.1935 1.75962
vt 40.1935 2.23788
f 24/45/8 33/65/8 32/66/8

f 33/65/8 24/45/8 25/44/8

usemtl _
vt -19.5574 17.8331
vt -19.498 15.5896
vt -19.0418 16.7343
f 25/67/11 29/68/11 33/69/11

f 29/68/11 25/67/11 27/48/11

f 26/49/11 27/48/11 25/67/11

v 288.032 29.8125 -258.253
vt -18.9895 15.2296
f 33/69/11 29/68/11 34/70/11

usemtl _5
vn -0.5 0 -0.866025
vt 42.9511 1.75961
f 30/59/15 34/71/15 29/58/15

vt 42.9511 2.23788
f 34/71/15 30/59/15 31/72/15

v 331.251 65.625 -183.396
vt 41.2191 2.23788
f 35/73/14 34/71/14 31/72/14

v 331.251 29.8125 -183.396
vt 41.2191 1.75961
f 34/71/14 35/73/14 36/74/14

vn 0.5 0 0.866025
f 35/73/16 33/65/16 36/74/16

f 33/65/16 35/73/16 32/66/16

usemtl _3
vt 19.7892 13.0237
f 31/63/1 32/64/1 35/75/1

usemtl _
vt -18.5333 16.3742
f 33/69/11 34/70/11 36/76/11

g Mesh2 Model

usemtl _6
v 226.624 13.0483 -3.74075
vt 35.4305 3.50761
v 181.146 13.0483 -120.428
vt 34.2528 7.53572
v 181.146 13.0483 -3.74075
vt 34.2528 3.50761
f 37/77/1 38/78/1 39/79/1

v 181.146 13.0483 -199.199
vt 34.2528 10.2549
f 38/78/1 37/77/1 40/80/1

v 226.624 13.0483 -120.428
vt 35.4305 7.53572
f 40/80/1 37/77/1 41/81/1

usemtl _5
vt 36.6028 1.53574
vn 1 0 3.12476e-16
v 226.624 -2.70167 -120.428
vt 38.9409 1.3254
vt 38.9409 1.53574
f 37/82/17 42/83/17 41/84/17

v 226.624 -2.70167 -3.74075
vt 36.6028 1.3254
f 42/83/17 37/82/17 43/85/17

v 181.146 -2.70167 -3.74075
vt 35.6916 1.3254
f 37/82/2 44/86/2 43/85/2

vt 35.6916 1.53574
f 44/86/2 37/82/2 39/87/2

vt 33.3535 1.53574
vn -1 0 -3.12476e-16
f 38/88/18 44/86/18 39/87/18

v 181.146 -2.70167 -120.428
vt 33.3535 1.3254
f 44/86/18 38/88/18 45/89/18

v 158.406 13.0483 -159.814
vt 32.4423 1.53574
f 46/90/4 45/89/4 38/88/4

v 158.406 -2.70167 -159.814
vt 32.4423 1.3254
f 45/89/4 46/90/4 47/91/4

vt 31.5311 1.53574
f 40/92/6 47/91/6 46/90/6

v 181.146 -2.70167 -199.199
vt 31.5311 1.3254
f 47/91/6 40/92/6 48/93/6

vt 41.6746 1.53573
vn 1.2499e-15 0 -1
v 226.624 -2.70167 -199.199
vt 40.7634 1.3254
vt 41.6746 1.3254
f 40/94/19 49/95/19 48/96/19

v 226.624 13.0483 -199.199
vt 40.7634 1.53574
f 49/95/19 40/94/19 50/97/19

usemtl _6
vt 35.4305 10.2549
f 40/80/1 41/81/1 50/98/1

v 249.363 13.0483 -159.814
vt 36.0194 8.89531
f 50/98/1 41/81/1 51/99/1

usemtl _5
v 249.363 -2.70167 -159.814
vt 39.8521 1.3254
vt 39.8521 1.53574
f 41/84/8 52/100/8 51/101/8

f 52/100/8 41/84/8 42/83/8

usemtl FrontColor
vt -226.624 120.428
vt -226.624 199.199
vt -249.363 159.814
f 42/102/11 49/103/11 52/104/11

vt -181.146 199.199
f 49/103/11 42/102/11 48/105/11

vt -226.624 3.74075
f 43/106/11 48/105/11 42/102/11

vt -181.146 3.74075
f 44/107/11 48/105/11 43/106/11

vt -181.146 120.428
f 45/108/11 48/105/11 44/107/11

vt -158.406 159.814
f 48/105/11 45/108/11 47/109/11

usemtl _5
f 49/95/14 51/101/14 52/100/14

f 51/101/14 49/95/14 50/97/14

usemtl _6
vt 33.6639 8.89531
f 40/80/1 46/110/1 38/78/1

